HIERARCHY
ROOT root
{
	OFFSET	0	13.1	24.9
	CHANNELS 6  Xposition Yposition Zposition Xrotation Yrotation Zrotation
	JOINT spine_1
	{
		OFFSET	0	9.99999	0
		CHANNELS 3  Xrotation Yrotation Zrotation
		JOINT spine_2
		{
			OFFSET	0	112	-10
			CHANNELS 3  Xrotation Yrotation Zrotation
			JOINT spine_3
			{
				OFFSET	0	206.5	19.3
				CHANNELS 3  Xrotation Yrotation Zrotation
				JOINT spine_4
				{
					OFFSET	0	110.4	14.6
					CHANNELS 3  Xrotation Yrotation Zrotation
					JOINT neck_1
					{
						OFFSET	0	71.8	-50.3
						CHANNELS 3  Xrotation Yrotation Zrotation
						JOINT neck_2
						{
							OFFSET	0	86.2	-25.8
							CHANNELS 3  Xrotation Yrotation Zrotation
							JOINT head_ee
							{
								OFFSET	0	179.8	-8.7
								CHANNELS 3  Xrotation Yrotation Zrotation
								End Site
								{
									OFFSET	1	0	0
								}
							}
						}
					}
					JOINT left_clavicle
					{
						OFFSET	-43.2	22.4	-70.8
						CHANNELS 3  Xrotation Yrotation Zrotation
						JOINT left_shoulder
						{
							OFFSET	-93.9	-5.79999	48.7
							CHANNELS 3  Xrotation Yrotation Zrotation
							JOINT left_elbow
							{
								OFFSET	-291.4	-30.8	15.2
								CHANNELS 3  Xrotation Yrotation Zrotation
								JOINT left_lowarm_twist
								{
									OFFSET	-110.7	-3.89999	13.6
									CHANNELS 3  Xrotation Yrotation Zrotation
									JOINT left_hand
									{
										OFFSET	-110.7	-3.89999	13.6
										CHANNELS 3  Xrotation Yrotation Zrotation
										JOINT left_ee
										{
											OFFSET	-80.8	-5.10001	12.1
											CHANNELS 3  Xrotation Yrotation Zrotation
											End Site
											{
												OFFSET	1	0	0
											}
										}
									}
								}
							}
						}
					}
					JOINT right_clavicle
					{
						OFFSET	43.2	22.4	-70.8
						CHANNELS 3  Xrotation Yrotation Zrotation
						JOINT right_shoulder
						{
							OFFSET	93.9	-5.79999	48.7
							CHANNELS 3  Xrotation Yrotation Zrotation
							JOINT right_elbow
							{
								OFFSET	291.4	-30.8	15.2
								CHANNELS 3  Xrotation Yrotation Zrotation
								JOINT right_lowarm_twist
								{
									OFFSET	110.7	-3.89999	13.6
									CHANNELS 3  Xrotation Yrotation Zrotation
									JOINT right_hand
									{
										OFFSET	110.7	-3.89999	13.6
										CHANNELS 3  Xrotation Yrotation Zrotation
										JOINT right_ee
										{
											OFFSET	80.8	-5.10001	12.1
											CHANNELS 3  Xrotation Yrotation Zrotation
											End Site
											{
												OFFSET	1	0	0
											}
										}
									}
								}
							}
						}
					}
				}
			}
		}
	}
	JOINT left_hip
	{
		OFFSET	-82.8	-127.5	0.300001
		CHANNELS 3  Xrotation Yrotation Zrotation
		JOINT left_knee
		{
			OFFSET	-28.2	-396.7	2.2
			CHANNELS 3  Xrotation Yrotation Zrotation
			JOINT left_ankle
			{
				OFFSET	-11.7	-411.3	35.4
				CHANNELS 3  Xrotation Yrotation Zrotation
				JOINT left_toes
				{
					OFFSET	0	-60	-88.6
					CHANNELS 3  Xrotation Yrotation Zrotation
					JOINT left_foot_ee
					{
						OFFSET	-22.5	-16.5	-42.2
						CHANNELS 3  Xrotation Yrotation Zrotation
						End Site
						{
							OFFSET	1	0	0
						}
					}
				}
			}
		}
	}
	JOINT right_hip
	{
		OFFSET	82.8	-127.5	0.300001
		CHANNELS 3  Xrotation Yrotation Zrotation
		JOINT right_knee
		{
			OFFSET	28.2	-396.7	2.2
			CHANNELS 3  Xrotation Yrotation Zrotation
			JOINT right_ankle
			{
				OFFSET	11.7	-411.3	35.4
				CHANNELS 3  Xrotation Yrotation Zrotation
				JOINT right_toes
				{
					OFFSET	0	-60	-88.6
					CHANNELS 3  Xrotation Yrotation Zrotation
					JOINT right_foot_ee
					{
						OFFSET	22.5	-16.5	-42.2
						CHANNELS 3  Xrotation Yrotation Zrotation
						End Site
						{
							OFFSET	1	0	0
						}
					}
				}
			}
		}
	}
}
MOTION
Frames: 14
Frame Time: 0.02
3494.09971751 760.471 -1508.32972405 118.247364699 69.3809256404 -122.807051905 -8.55035 1.75039 1.52282 -8.55058 1.64996 1.63111 -8.4986 0.970221 2.10742 -8.50247 1.29081 1.92784 -5.12131 0.0962821 -0.225455 -5.12112 0.346184 -0.212639 -0.0 0.0 -0.0 4.84478 6.0947 9.52176 -13.9627 -17.5154 64.8072 0.573427 -15.8578 0.0798651 -22.7899 -1.33316 2.57182 4.75448 13.0515 38.4317 -0.0 0.0 -0.0 7.42705 31.1723 -12.5796 1.97616 21.9118 -52.2166 1.88843 43.0861 -0.745571 -3.94772 0.155712 -0.479885 -2.16036 -9.16948 10.1525 0.0 0.0 0.0 0.175624 20.1055 -6.04795 -29.0322 0.079916 4.40725 1.6165 -10.1163 -0.248406 -10.2198 0.0 0.0 -0.0 0.0 -0.0 -21.6907 -14.1594 -0.0580888 3.35812 0.152783 0.492539 38.0399 9.78569 4.84776 36.454 -0.0 -0.0 0.0 0.0 0.0 
3495.67108123 760.471 -1511.86350277 111.93690759 70.4620972942 -116.089452427 -8.55035 1.75039 1.52282 -8.55058 1.64996 1.63111 -8.4986 0.970221 2.10742 -8.50247 1.29081 1.92784 -5.12131 0.0962821 -0.225455 -5.12112 0.346184 -0.212639 -0.0 0.0 -0.0 4.84478 6.0947 9.52176 -13.9627 -17.5154 64.8072 0.573427 -15.8578 0.0798651 -22.7899 -1.33316 2.57182 4.75448 13.0515 38.4317 -0.0 0.0 -0.0 7.42705 31.1723 -12.5796 1.97616 21.9118 -52.2166 1.88843 43.0861 -0.745571 -3.94772 0.155712 -0.479885 -2.16036 -9.16948 10.1525 0.0 0.0 0.0 0.175624 20.1055 -6.04795 -29.0322 0.079916 4.40725 1.6165 -10.1163 -0.248406 -10.2198 0.0 0.0 -0.0 0.0 -0.0 -21.6907 -14.1594 -0.0580888 3.35812 0.152783 0.492539 38.0399 9.78569 4.84776 36.454 -0.0 -0.0 0.0 0.0 0.0 
3497.2549671 760.471 -1515.05179228 105.547362469 71.2161785563 -109.326163293 -8.55035 1.75039 1.52282 -8.55058 1.64996 1.63111 -8.4986 0.970221 2.10742 -8.50247 1.29081 1.92784 -5.12131 0.0962821 -0.225455 -5.12112 0.346184 -0.212639 -0.0 0.0 -0.0 4.84478 6.0947 9.52176 -13.9627 -17.5154 64.8072 0.573427 -15.8578 0.0798651 -22.7899 -1.33316 2.57182 4.75448 13.0515 38.4317 -0.0 0.0 -0.0 7.42705 31.1723 -12.5796 1.97616 21.9118 -52.2166 1.88843 43.0861 -0.745571 -3.94772 0.155712 -0.479885 -2.16036 -9.16948 10.1525 0.0 0.0 0.0 0.175624 20.1055 -6.04795 -29.0322 0.079916 4.40725 1.6165 -10.1163 -0.248406 -10.2198 0.0 0.0 -0.0 0.0 -0.0 -21.6907 -14.1594 -0.0580888 3.35812 0.152783 0.492539 38.0399 9.78569 4.84776 36.454 -0.0 -0.0 0.0 0.0 0.0 
3498.10574271 760.471 -1516.63970497 102.134547439 71.4999263071 -105.724511568 -8.55035 1.75039 1.52282 -8.55058 1.64996 1.63111 -8.4986 0.970221 2.10742 -8.50247 1.29081 1.92784 -5.12131 0.0962821 -0.225455 -5.12112 0.346184 -0.212639 -0.0 0.0 -0.0 4.84478 6.0947 9.52176 -13.9627 -17.5154 64.8072 0.573427 -15.8578 0.0798651 -22.7899 -1.33316 2.57182 4.75448 13.0515 38.4317 -0.0 0.0 -0.0 7.42705 31.1723 -12.5796 1.97616 21.9118 -52.2166 1.88843 43.0861 -0.745571 -3.94772 0.155712 -0.479885 -2.16036 -9.16948 10.1525 0.0 0.0 0.0 0.175624 20.1055 -6.04795 -29.0322 0.079916 4.40725 1.6165 -10.1163 -0.248406 -10.2198 0.0 0.0 -0.0 0.0 -0.0 -21.6907 -14.1594 -0.0580888 3.35812 0.152783 0.492539 38.0399 9.78569 4.84776 36.454 -0.0 -0.0 0.0 0.0 0.0 
3498.45672616 760.471 -1517.27257001 100.735604147 71.5943518766 -104.249750764 -8.55035 1.75039 1.52282 -8.55058 1.64996 1.63111 -8.4986 0.970221 2.10742 -8.50247 1.29081 1.92784 -5.12131 0.0962821 -0.225455 -5.12112 0.346184 -0.212639 -0.0 0.0 -0.0 4.84478 6.0947 9.52176 -13.9627 -17.5154 64.8072 0.573427 -15.8578 0.0798651 -22.7899 -1.33316 2.57182 4.75448 13.0515 38.4317 -0.0 0.0 -0.0 7.42705 31.1723 -12.5796 1.97616 21.9118 -52.2166 1.88843 43.0861 -0.745571 -3.94772 0.155712 -0.479885 -2.16036 -9.16948 10.1525 0.0 0.0 0.0 0.175624 20.1055 -6.04795 -29.0322 0.079916 4.40725 1.6165 -10.1163 -0.248406 -10.2198 0.0 0.0 -0.0 0.0 -0.0 -21.6907 -14.1594 -0.0580888 3.35812 0.152783 0.492539 38.0399 9.78569 4.84776 36.454 -0.0 -0.0 0.0 0.0 0.0 
3498.65901118 760.471 -1517.6317693 99.9324255704 71.6430186935 -103.403391533 -8.55035 1.75039 1.52282 -8.55058 1.64996 1.63111 -8.4986 0.970221 2.10742 -8.50247 1.29081 1.92784 -5.12131 0.0962821 -0.225455 -5.12112 0.346184 -0.212639 -0.0 0.0 -0.0 4.84478 6.0947 9.52176 -13.9627 -17.5154 64.8072 0.573427 -15.8578 0.0798651 -22.7899 -1.33316 2.57182 4.75448 13.0515 38.4317 -0.0 0.0 -0.0 7.42705 31.1723 -12.5796 1.97616 21.9118 -52.2166 1.88843 43.0861 -0.745571 -3.94772 0.155712 -0.479885 -2.16036 -9.16948 10.1525 0.0 0.0 0.0 0.175624 20.1055 -6.04795 -29.0322 0.079916 4.40725 1.6165 -10.1163 -0.248406 -10.2198 0.0 0.0 -0.0 0.0 -0.0 -21.6907 -14.1594 -0.0580888 3.35812 0.152783 0.492539 38.0399 9.78569 4.84776 36.454 -0.0 -0.0 0.0 0.0 0.0 
3463.80262306 756.119 -1515.09255873 123.683746936 67.7672469665 -127.887285842 -8.45006 0.576078 1.30302 -8.44925 0.492003 1.33703 -8.43449 -0.00901121 1.42464 -8.43725 0.216074 1.40819 -4.95486 -1.13622 -2.00158 -4.94399 -0.581866 -2.23613 -0.0 0.0 -0.0 4.22762 4.82678 8.35082 -16.1282 -16.9401 66.553 0.532225 -14.77 0.0689831 -23.3965 -1.38217 2.63215 4.71732 14.2931 38.462 -0.0 0.0 -0.0 7.59482 29.0072 -13.2047 6.99693 19.228 -51.0941 2.05856 45.5549 -0.864463 -4.64388 0.186589 -0.563362 -2.05237 -9.38251 9.34291 0.0 0.0 0.0 1.99853 18.6928 -2.78624 -22.651 0.254739 3.44405 7.56921 -19.5313 -1.22339 -14.1844 0.0 0.0 -0.0 0.0 -0.0 -23.0291 -11.5075 -0.790018 -2.98973 -0.1115 -0.445227 35.1552 5.68534 4.49914 39.2843 -0.0 -0.0 0.0 0.0 0.0 
3456.33865597 758.209 -1515.65235755 126.557980331 67.4126642395 -130.970777394 -8.24972 0.277831 1.49602 -8.24849 0.182084 1.51066 -8.24026 -0.355269 1.47955 -8.24329 -0.117172 1.51708 -4.9793 -1.61805 -2.31086 -4.96503 -1.23576 -2.63424 -0.0 0.0 -0.0 3.91082 6.22019 7.81806 -16.7829 -17.2239 66.3636 0.565417 -15.6472 0.0776906 -25.9564 -1.59594 2.88095 4.67881 14.1802 38.1149 -0.0 0.0 -0.0 9.25476 28.501 -16.9228 11.0712 18.8246 -49.7806 1.91587 43.4984 -0.764382 -4.45126 0.177944 -0.540303 -2.54766 -11.5816 11.4638 0.0 0.0 0.0 3.36754 17.9037 -2.35066 -20.1459 0.293876 3.06168 6.78257 -24.4814 -1.15586 -12.7235 0.0 0.0 -0.0 0.0 -0.0 -24.1409 -11.5819 -1.3712 -1.43437 -0.0563973 -0.212894 29.2488 6.52718 3.90283 38.7762 -0.0 -0.0 0.0 0.0 0.0 
3440.59639836 750.795 -1513.38915344 130.99659614 67.0951125884 -135.267485849 -7.9357 0.432638 1.56171 -7.93441 0.332399 1.58607 -7.92122 -0.231638 1.60388 -7.92481 0.0245372 1.62033 -5.67614 -2.17942 -3.18068 -5.64905 -1.65998 -3.61707 -0.0 0.0 -0.0 3.02883 6.44628 6.22755 -17.041 -17.3101 67.5031 0.565061 -15.6379 0.0775946 -27.0976 -1.6948 2.98876 4.79875 14.6547 39.2324 -0.0 0.0 -0.0 9.51994 28.7809 -17.4778 15.5049 21.1193 -48.6659 2.00816 44.845 -0.828697 -4.23764 0.168448 -0.514695 -2.7538 -12.3079 12.4223 0.0 0.0 0.0 7.34604 17.5524 -1.22418 -14.6044 0.32088 2.21219 4.67156 -20.3763 -0.76892 -14.0421 0.0 0.0 -0.0 0.0 -0.0 -24.7009 -11.508 -2.02184 -0.80843 -0.0324429 -0.119821 26.4569 6.06276 3.58319 38.3352 -0.0 -0.0 0.0 0.0 0.0 
3440.71461861 750.795 -1513.79606569 130.683645912 67.2090926602 -134.927890915 -7.9357 0.432638 1.56171 -7.93441 0.332399 1.58607 -7.92122 -0.231638 1.60388 -7.92481 0.0245372 1.62033 -5.67614 -2.17942 -3.18068 -5.64905 -1.65998 -3.61707 -0.0 0.0 -0.0 3.02883 6.44628 6.22755 -17.041 -17.3101 67.5031 0.565061 -15.6379 0.0775946 -27.0976 -1.6948 2.98876 4.79875 14.6547 39.2324 -0.0 0.0 -0.0 9.51994 28.7809 -17.4778 15.5049 21.1193 -48.6659 2.00816 44.845 -0.828697 -4.23764 0.168448 -0.514695 -2.7538 -12.3079 12.4223 0.0 0.0 0.0 7.34604 17.5524 -1.22418 -14.6044 0.32088 2.21219 4.67156 -20.3763 -0.76892 -14.0421 0.0 0.0 -0.0 0.0 -0.0 -24.7009 -11.508 -2.02184 -0.80843 -0.0324429 -0.119821 26.4569 6.06276 3.58319 38.3352 -0.0 -0.0 0.0 0.0 0.0 
3417.04231154 745.907 -1514.75468811 128.795289658 67.9392464215 -132.633717044 -7.72588 0.705749 1.94193 -7.72397 0.580773 1.98288 -7.69741 -0.126245 2.06229 -7.70329 0.20097 2.05636 -6.57345 -2.63014 -4.18441 -6.52617 -1.82344 -4.71357 -0.0 0.0 -0.0 2.47403 6.55293 5.2319 -18.6337 -16.5583 67.6974 0.527196 -14.6365 0.0677066 -28.272 -1.79876 3.09765 4.62371 14.8708 37.8447 -0.0 0.0 -0.0 10.1939 29.4569 -18.8934 19.0232 21.3809 -48.9608 2.15562 46.8728 -0.934534 -3.20749 0.123998 -0.390726 -3.10591 -14.7576 13.3697 0.0 0.0 0.0 8.7714 17.2897 -1.14583 -10.3301 0.285569 1.55748 4.96549 -15.9252 -0.785684 -17.1363 0.0 0.0 -0.0 0.0 -0.0 -26.3745 -11.4365 -2.21631 1.29361 0.0554268 0.190766 18.4123 8.28615 2.62779 37.441 -0.0 -0.0 0.0 0.0 0.0 
3416.85543106 745.907 -1514.01255466 129.310517472 67.7691190059 -133.189980684 -7.72588 0.705749 1.94193 -7.72397 0.580773 1.98288 -7.69741 -0.126245 2.06229 -7.70329 0.20097 2.05636 -6.57345 -2.63014 -4.18441 -6.52617 -1.82344 -4.71357 -0.0 0.0 -0.0 2.47403 6.55293 5.2319 -18.6337 -16.5583 67.6974 0.527196 -14.6365 0.0677066 -28.272 -1.79876 3.09765 4.62371 14.8708 37.8447 -0.0 0.0 -0.0 10.1939 29.4569 -18.8934 19.0232 21.3809 -48.9608 2.15562 46.8728 -0.934534 -3.20749 0.123998 -0.390726 -3.10591 -14.7576 13.3697 0.0 0.0 0.0 8.7714 17.2897 -1.14583 -10.3301 0.285569 1.55748 4.96549 -15.9252 -0.785684 -17.1363 0.0 0.0 -0.0 0.0 -0.0 -26.3745 -11.4365 -2.21631 1.29361 0.0554268 0.190766 18.4123 8.28615 2.62779 37.441 -0.0 -0.0 0.0 0.0 0.0 
3416.64303941 745.907 -1513.15060896 129.898036944 67.5694437616 -133.825130749 -7.72588 0.705749 1.94193 -7.72397 0.580773 1.98288 -7.69741 -0.126245 2.06229 -7.70329 0.20097 2.05636 -6.57345 -2.63014 -4.18441 -6.52617 -1.82344 -4.71357 -0.0 0.0 -0.0 2.47403 6.55293 5.2319 -18.6337 -16.5583 67.6974 0.527196 -14.6365 0.0677066 -28.272 -1.79876 3.09765 4.62371 14.8708 37.8447 -0.0 0.0 -0.0 10.1939 29.4569 -18.8934 19.0232 21.3809 -48.9608 2.15562 46.8728 -0.934534 -3.20749 0.123998 -0.390726 -3.10591 -14.7576 13.3697 0.0 0.0 0.0 8.7714 17.2897 -1.14583 -10.3301 0.285569 1.55748 4.96549 -15.9252 -0.785684 -17.1363 0.0 0.0 -0.0 0.0 -0.0 -26.3745 -11.4365 -2.21631 1.29361 0.0554268 0.190766 18.4123 8.28615 2.62779 37.441 -0.0 -0.0 0.0 0.0 0.0 
3243.05322648 705.68 -1490.30152622 98.3198062376 72.3458201564 -103.893836922 -7.02364 1.04607 2.33279 -7.02106 0.895551 2.39459 -6.9745 0.0627301 2.55571 -6.98331 0.465441 2.51378 -5.5412 2.10438 0.312638 -5.53915 3.64711 0.697236 -0.0 0.0 -0.0 2.21229 0.946429 4.33737 -15.7712 -17.345 69.0252 0.634389 -17.4458 0.0973359 -35.9943 -2.53558 3.75837 5.10211 14.0729 41.6669 -0.0 0.0 -0.0 5.80807 29.1128 -9.2891 10.6849 28.791 -48.8464 3.77132 61.8244 -2.2587 21.5193 -0.249799 2.72142 -1.80276 -21.1046 2.1281 0.0 0.0 0.0 10.4305 15.5251 4.28442 -16.3264 0.321291 2.47639 11.5456 -1.93307 -1.65585 -34.8746 0.0 0.0 -0.0 0.0 -0.0 -39.6746 -9.65881 3.53455 6.68899 0.332644 0.971613 -18.7435 -8.83066 -2.81639 32.432 -0.0 -0.0 0.0 0.0 0.0 
